<svg xmlns="http://www.w3.org/2000/svg" class="ionicon" viewBox="0 0 512 512">
<title>Icon Speaker</title>
<path d="M193.8,437.7c1.8-1.3,3.7-1.6,5.5-2.2c16.4-5.5,30.6-14.3,42.6-26.8c9.4-9.8,16.6-21.1,22-33.5
	c5.6-13,9.3-26.5,10.8-40.6c0.3-2.4,0.6-4.8,0.7-7.2c0.1-2.6-0.1-2.8-2.6-2.9c-1.4,0-2.9,0-4.3,0c-43.7,0-87.3,0-131,0
	c-7,0-5.9,1.1-6.7-6.5c-0.6-5.3,0.3-10.6,1-15.8c2.1-16.5,6.8-32.2,14.4-47c17.1-33.2,43.1-56.8,77.8-70.7
	c18.8-7.5,38.5-10.6,58.7-9.8c32.2,1.2,61,11.8,86.2,31.8c21.9,17.4,37.6,39.5,47,66c4.2,11.8,6.7,24,7.7,36.5
	c1.3,15.6,0.2,31-3.2,46.2c-0.8,3.4-1.9,6.8-2.9,10.1c-0.3,0.9,0.2,1.6,1.1,1.7c1.3,0.1,2.6,0.1,3.8,0.1c7.7,0,15.4,0,23,0
	c1,0,1.9,0,2.9,0c1.4,0.1,1.8,0.6,1.4,1.8c-0.4,1.1-0.8,2.1-1.2,3.1c-19.7,49.1-61.3,84.7-112.7,96.7c-16.2,3.8-32.5,5.2-49,4.4
	c-33.2-1.7-63.2-12.2-89.8-32.3C195.9,440.1,194.6,439.4,193.8,437.7z M221.9,240.9c-11.1-0.6-24.4,8.4-24.5,24.1
	c-0.1,15.8,13.3,24.4,24.2,24.5c13.1,0.1,24.5-11.2,24.5-24.2C246.2,251.9,234.5,240.4,221.9,240.9z"/>
</svg>