<?xml version="1.0" encoding="utf-8"?>
<!-- Generator: Adobe Illustrator 24.3.0, SVG Export Plug-In . SVG Version: 6.00 Build 0)  -->
<svg version="1.1" id="Capa_1" xmlns="http://www.w3.org/2000/svg" xmlns:xlink="http://www.w3.org/1999/xlink" x="0px" y="0px"
	 viewBox="0 0 350 140" style="enable-background:new 0 0 350 140;" xml:space="preserve">
<style type="text/css">
	.st0{fill:#C8C9CE;}
	.st1{fill:#FF8500;}
	.st2{fill:#0076FD;}
</style>
<path class="st0" d="M-86,196.9c0.7,0,1.5-0.3,2-0.8L75.3,39.1c1.1-1.1,1.1-2.9,0-4c-0.6-0.6-1.3-0.8-2-0.8c-0.7,0-1.5,0.3-2,0.8
	L-88,192c-1.1,1.1-1.1,2.9,0,4C-87.5,196.6-86.8,196.9-86,196.9"/>
<path class="st1" d="M-65.9,202.8c1.7,0,3.4-0.6,4.7-1.9L92.8,49.3c2.6-2.6,2.6-6.7,0-9.3c-1.3-1.3-3-1.9-4.7-1.9
	c-1.7,0-3.4,0.6-4.7,1.9L-70.6,191.7c-2.6,2.6-2.6,6.7,0,9.3C-69.3,202.2-67.6,202.8-65.9,202.8"/>
<path class="st2" d="M-74.3,167.2c1.7,0,3.4-0.6,4.7-1.9L84.3,13.6c2.6-2.6,2.6-6.7,0-9.3c-1.3-1.3-3-1.9-4.7-1.9
	c-1.7,0-3.4,0.6-4.7,1.9L-79,156c-2.6,2.6-2.6,6.7,0,9.3C-77.7,166.6-76,167.2-74.3,167.2"/>
<path class="st2" d="M-111.7,176.6c1.7,0,3.4-0.6,4.7-1.9L46.9,23c2.6-2.6,2.6-6.7,0-9.3c-1.3-1.3-3-1.9-4.7-1.9
	c-1.7,0-3.4,0.6-4.7,1.9l-153.9,151.7c-2.6,2.6-2.6,6.7,0,9.3C-115.1,175.9-113.4,176.6-111.7,176.6"/>
<path class="st2" d="M86.8,24.2L86.8,24.2c0.8,0.8,0.8,2.1,0,2.9L81,32.9c-0.8,0.8-2.1,0.8-2.9,0c-0.8-0.8-0.8-2.1,0-2.9l5.8-5.7
	C84.7,23.5,86,23.5,86.8,24.2z"/>
</svg>
